HIERARCHY
ROOT Hips
{
	OFFSET -0.001795 -0.223333 0.028219
	CHANNELS 6 Xposition Yposition Zposition Zrotation Yrotation Xrotation 
	JOINT LeftUpLeg
	{
		OFFSET 0.069520 -0.091406 -0.006815
		CHANNELS 3 Zrotation Yrotation Xrotation
		JOINT LeftLeg
		{
			OFFSET 0.034277 -0.375199 -0.004496
			CHANNELS 3 Zrotation Yrotation Xrotation
			JOINT LeftFoot
			{
				OFFSET -0.013596 -0.397961 -0.043693
				CHANNELS 3 Zrotation Yrotation Xrotation
				JOINT LeftToe
				{
					OFFSET 0.026358 -0.055791 0.119288
					CHANNELS 3 Zrotation Yrotation Xrotation
					End Site
					{
						OFFSET 0.000000 0.000000 0.000000
					}
				}
			}
		}
	}
	JOINT RightUpLeg
	{
		OFFSET -0.067670 -0.090522 -0.004320
		CHANNELS 3 Zrotation Yrotation Xrotation
		JOINT RightLeg
		{
			OFFSET -0.038290 -0.382569 -0.008850
			CHANNELS 3 Zrotation Yrotation Xrotation
			JOINT RightFoot
			{
				OFFSET 0.015774 -0.398415 -0.042312
				CHANNELS 3 Zrotation Yrotation Xrotation
				JOINT RightToe
				{
					OFFSET -0.025372 -0.048144 0.123348
					CHANNELS 3 Zrotation Yrotation Xrotation
					End Site
					{
						OFFSET 0.000000 0.000000 0.000000
					}
				}
			}
		}
	}
	JOINT Spine
	{
		OFFSET -0.002533 0.108963 -0.026696
		CHANNELS 3 Zrotation Yrotation Xrotation
		JOINT Spine1
		{
			OFFSET 0.005487 0.135180 0.001092
			CHANNELS 3 Zrotation Yrotation Xrotation
			JOINT Spine2
			{
				OFFSET 0.001457 0.052922 0.025425
				CHANNELS 3 Zrotation Yrotation Xrotation
				JOINT Neck
				{
					OFFSET -0.002778 0.213870 -0.042857
					CHANNELS 3 Zrotation Yrotation Xrotation
					JOINT Head
					{
						OFFSET 0.005152 0.064970 0.051349
						CHANNELS 3 Zrotation Yrotation Xrotation
						End Site
						{
							OFFSET 0.000000 0.000000 0.000000
						}
					}
				}
				JOINT LeftShoulder
				{
					OFFSET 0.078845 0.121749 -0.034090
					CHANNELS 3 Zrotation Yrotation Xrotation
					JOINT LeftArm
					{
						OFFSET 0.090977 0.030469 -0.008868
						CHANNELS 3 Zrotation Yrotation Xrotation
						JOINT LeftForeArm
						{
							OFFSET 0.259612 -0.012772 -0.027456
							CHANNELS 3 Zrotation Yrotation Xrotation
							JOINT LeftHand
							{
								OFFSET 0.249234 0.008986 -0.001171
								CHANNELS 3 Zrotation Yrotation Xrotation
								End Site
								{
									OFFSET 0.000000 0.000000 0.000000
								}
							}
						}
					}
				}
				JOINT RightShoulder
				{
					OFFSET -0.081759 0.118833 -0.038615
					CHANNELS 3 Zrotation Yrotation Xrotation
					JOINT RightArm
					{
						OFFSET -0.096012 0.032551 -0.009143
						CHANNELS 3 Zrotation Yrotation Xrotation
						JOINT RightForeArm
						{
							OFFSET -0.253742 -0.013329 -0.021401
							CHANNELS 3 Zrotation Yrotation Xrotation
							JOINT RightHand
							{
								OFFSET -0.255298 0.007772 -0.005559
								CHANNELS 3 Zrotation Yrotation Xrotation
								End Site
								{
									OFFSET 0.000000 0.000000 0.000000
								}
							}
						}
					}
				}
			}
		}
	}
}
MOTION
Frames: 16
Frame Time: 0.050000
0.000000 0.937971 0.000000 0.515535 -3.535685 3.054509 3.765128 -0.378375 -5.628713 -0.232397 -0.214650 8.879931 1.472423 3.284470 0.388025 0.000000 0.000000 0.000000 -4.097550 0.647994 -7.629339 -2.608541 1.208458 13.654297 -1.635150 -3.331233 -1.663128 0.000000 0.000000 0.000000 7.091828 -0.198378 0.734067 -0.872389 0.442622 -3.572622 -1.728744 4.044320 6.297056 7.198242 -5.398216 -2.584717 0.000000 0.000000 0.000000 9.102677 5.895979 -0.499528 -6.949899 -9.121923 -0.709384 9.208255 -11.555742 -0.552671 0.000000 0.000000 0.000000 -14.672012 -11.590929 -1.663120 3.944390 9.079554 -0.597030 -10.886080 21.470126 -1.021870 0.000000 0.000000 0.000000 
-0.002531 0.938400 -0.001201 -0.105443 -2.951752 3.315185 4.190552 -0.363117 -5.495097 -0.073271 -0.208347 7.242302 1.291668 2.924155 0.442996 0.000000 0.000000 0.000000 -3.457773 0.642521 -7.329934 -2.505058 1.166052 13.556453 -1.995480 -4.173698 -1.925255 0.000000 0.000000 0.000000 8.333875 -0.134496 -0.161350 -0.837500 0.419770 -2.201620 -2.455188 4.023423 5.668898 7.248910 -5.551910 -1.868143 0.000000 0.000000 0.000000 5.521544 6.049804 -1.065987 -8.836241 -7.558595 -0.784054 10.726667 -16.816953 -1.074528 0.000000 0.000000 0.000000 -12.947113 -10.894689 -1.828136 6.684009 7.795175 -0.647978 -7.174520 24.282646 -0.444184 0.000000 0.000000 0.000000 
-0.004082 0.937556 -0.002911 0.351847 -3.607029 3.231649 3.357104 -0.376777 -5.328623 0.435778 -0.328918 8.390204 1.629295 3.049494 -1.253471 0.000000 0.000000 0.000000 -3.890291 0.737257 -8.803446 -1.527609 1.148041 16.303376 -2.800209 -5.631459 -3.348425 0.000000 0.000000 0.000000 8.958624 -0.182031 0.246152 -1.083853 0.534072 -3.482393 -3.235865 5.191000 7.923713 6.907603 -4.959259 -3.616869 0.000000 0.000000 0.000000 3.267357 6.272270 -1.507050 -14.491119 -8.002896 -1.061842 11.344157 -21.600017 -1.580556 0.000000 0.000000 0.000000 -8.229376 -11.295172 -2.804789 9.267157 8.069510 -0.792266 -8.508819 30.537867 -0.825175 0.000000 0.000000 0.000000 
-0.005023 0.936116 -0.004687 0.489945 -2.926965 3.307721 3.482649 -0.446335 -6.501440 -0.188609 -0.252746 9.733606 1.655376 2.714569 -2.266939 0.000000 0.000000 0.000000 -4.325959 0.773186 -9.686176 -0.473575 0.946567 17.698672 -2.727752 -5.681048 -2.919100 0.000000 0.000000 0.000000 9.468319 -0.216501 0.396977 -1.482767 0.713606 -2.884372 -3.296293 4.666421 8.577798 6.658715 -4.641297 -4.366252 0.000000 0.000000 0.000000 -1.620429 5.860154 -2.260731 -20.689551 -6.927463 -1.524127 14.078690 -28.838191 -2.839004 0.000000 0.000000 0.000000 -4.763436 -10.945918 -3.191638 13.289744 7.945765 -0.955118 -6.117781 34.950444 -0.268265 0.000000 0.000000 0.000000 
-0.005249 0.934083 -0.006417 0.787037 -2.936572 3.274818 3.188439 -0.514530 -7.420179 -0.599804 -0.198479 11.095248 2.072778 3.313268 -3.192790 0.000000 0.000000 0.000000 -4.854345 0.782090 -10.232482 0.307903 0.771204 18.228506 -2.892431 -5.893181 -3.455902 0.000000 0.000000 0.000000 9.405927 -0.243081 0.638853 -1.269454 0.616514 -2.483547 -3.718972 5.664876 8.553209 7.154695 -4.773324 -5.361496 0.000000 0.000000 0.000000 -6.256376 5.387446 -3.004692 -27.670411 -5.187888 -2.224091 14.752328 -37.576548 -4.145702 0.000000 0.000000 0.000000 -0.132296 -10.653184 -3.775666 18.726715 7.757310 -1.208207 -3.971653 41.325416 0.670576 0.000000 0.000000 0.000000 
-0.005019 0.931899 -0.007481 0.907561 -2.173419 3.342383 3.182665 -0.582791 -8.435624 -0.625695 -0.236041 12.347636 2.258287 3.286895 -4.273771 0.000000 0.000000 0.000000 -5.424555 0.804080 -11.328617 0.933913 0.661481 20.325110 -2.983785 -5.905369 -4.153759 0.000000 0.000000 0.000000 9.238449 -0.235550 0.539507 -1.422986 0.683902 -1.208364 -3.369748 4.950542 8.108546 6.987945 -4.390976 -6.703711 0.000000 0.000000 0.000000 -10.421067 5.305101 -3.776586 -36.301545 -2.952274 -3.480395 11.926087 -45.771774 -3.855567 0.000000 0.000000 0.000000 3.687839 -9.249078 -3.727086 25.121169 7.565852 -1.443878 -1.610580 46.025524 1.745260 0.000000 0.000000 0.000000 
-0.004411 0.929658 -0.008053 1.192529 -1.926572 3.434993 2.972520 -0.618108 -8.757009 -0.693032 -0.224963 12.276954 2.545257 3.839495 -4.547794 0.000000 0.000000 0.000000 -5.986715 0.808945 -12.172695 1.094702 0.657460 21.687561 -2.908272 -5.548741 -4.543308 0.000000 0.000000 0.000000 9.058473 -0.267628 0.803936 -1.235959 0.600797 -1.567564 -3.260114 5.537451 8.488401 7.150310 -4.110555 -8.585358 0.000000 0.000000 0.000000 -15.012480 4.481264 -4.452264 -43.173008 0.541036 -5.303993 3.536030 -50.373603 -0.420911 0.000000 0.000000 0.000000 7.832533 -8.068790 -3.669440 31.438376 6.730079 -1.933650 2.127211 50.092383 3.867526 0.000000 0.000000 0.000000 
-0.003709 0.928042 -0.008750 1.301291 -1.413394 3.147363 2.867954 -0.634968 -8.893536 -0.664427 -0.263026 13.098168 2.303160 3.045804 -5.005314 0.000000 0.000000 0.000000 -5.996771 0.822415 -12.765084 0.805458 0.793370 23.557259 -2.775461 -5.134448 -4.720673 0.000000 0.000000 0.000000 9.100627 -0.332213 1.382155 -1.638304 0.784836 -0.984266 -3.089452 5.315951 7.893242 7.032835 -3.754686 -9.950422 0.000000 0.000000 0.000000 -17.966464 3.634504 -4.675677 -49.014050 2.246404 -6.710811 -5.514317 -49.508562 3.785721 0.000000 0.000000 0.000000 11.485900 -6.492026 -3.305697 37.466998 6.569838 -2.215924 6.406917 52.040933 6.160163 0.000000 0.000000 0.000000 
-0.002788 0.926787 -0.010092 1.229566 -0.482985 2.949896 3.094874 -0.656787 -9.361294 -0.773204 -0.285024 13.971436 2.289356 2.731449 -5.482041 0.000000 0.000000 0.000000 -5.954048 0.825688 -13.242833 0.689310 0.814170 24.735196 -2.749366 -5.002564 -5.023267 0.000000 0.000000 0.000000 9.043472 -0.391241 1.891886 -1.312692 0.635348 -0.943002 -3.157592 5.328068 7.881693 6.786221 -3.168481 -11.985468 0.000000 0.000000 0.000000 -20.503893 1.416587 -4.166357 -52.755667 1.610661 -6.955090 -7.711048 -44.104151 4.197710 0.000000 0.000000 0.000000 14.688911 -4.968722 -2.724578 42.572650 6.750342 -2.435761 9.675844 51.355683 7.769541 0.000000 0.000000 0.000000 
-0.001570 0.925777 -0.012532 0.971557 0.172765 2.638065 3.200077 -0.696613 -10.045104 -0.527745 -0.398679 15.174037 2.315182 2.522633 -5.950277 0.000000 0.000000 0.000000 -5.575917 0.860114 -13.666296 0.328699 0.938291 26.078210 -2.618249 -4.508282 -5.407109 0.000000 0.000000 0.000000 9.398508 -0.471897 2.494688 -1.591203 0.761920 -0.434330 -3.264552 4.994054 7.514725 6.988470 -2.954913 -13.877064 0.000000 0.000000 0.000000 -21.597479 -0.628285 -3.292351 -54.396694 0.484987 -6.629675 -8.339349 -39.736385 3.994610 0.000000 0.000000 0.000000 15.843768 -3.695807 -2.131048 46.043787 7.354632 -2.318400 14.394993 49.106733 9.514855 0.000000 0.000000 0.000000 
-0.000050 0.924699 -0.015607 0.725354 0.413035 2.487380 3.382232 -0.752703 -11.132590 -0.585265 -0.451385 17.051060 2.371941 2.498786 -6.252792 0.000000 0.000000 0.000000 -5.418784 0.901015 -14.322248 0.220453 0.998438 27.153623 -2.725720 -4.761293 -5.590948 0.000000 0.000000 0.000000 9.364504 -0.599183 3.562903 -1.922769 0.921633 -0.825713 -3.113593 4.569401 7.555741 7.017618 -2.787777 -15.159012 0.000000 0.000000 0.000000 -22.065887 -2.472648 -2.250181 -54.651664 -0.471658 -6.236185 -9.036040 -37.115443 4.012328 0.000000 0.000000 0.000000 16.222158 -2.379742 -1.522646 47.097669 7.731619 -2.200395 18.114462 46.035365 10.296447 0.000000 0.000000 0.000000 
0.001291 0.924059 -0.018574 0.502436 0.438248 2.509379 3.532653 -0.817357 -12.376034 -0.245861 -0.601579 18.758854 2.312244 2.231630 -6.505199 0.000000 0.000000 0.000000 -5.240994 0.946744 -14.852556 0.045785 1.092000 28.001870 -2.679151 -4.574438 -5.712591 0.000000 0.000000 0.000000 9.277951 -0.652284 4.015738 -2.116894 1.012258 -0.867817 -3.225583 4.283738 7.331264 7.328780 -2.846236 -16.084690 0.000000 0.000000 0.000000 -21.849185 -3.379936 -1.647287 -53.144450 -1.633414 -5.512680 -10.687651 -35.053698 4.323972 0.000000 0.000000 0.000000 15.811711 -1.740980 -1.223304 47.549036 7.838897 -2.122597 21.343707 43.809757 10.969110 0.000000 0.000000 0.000000 
0.002230 0.924053 -0.020490 0.265403 0.359611 2.520170 3.785345 -0.805665 -12.586450 -0.389776 -0.559998 18.821945 2.343349 2.416934 -6.288051 0.000000 0.000000 0.000000 -4.830808 1.003828 -15.073377 -0.177888 1.188643 28.193332 -2.986620 -5.627995 -5.332194 0.000000 0.000000 0.000000 8.907057 -0.647573 4.140651 -2.084356 0.997174 -0.874242 -3.298948 3.879135 7.359389 7.553764 -3.056092 -15.951696 0.000000 0.000000 0.000000 -21.824991 -4.068951 -1.127242 -51.272853 -2.350226 -5.004867 -11.514871 -34.819365 4.598254 0.000000 0.000000 0.000000 15.301084 -1.258296 -1.039811 47.195594 7.958192 -2.036761 23.546748 41.498719 11.056222 0.000000 0.000000 0.000000 
0.002710 0.924055 -0.021309 0.098742 0.065351 2.586652 3.752400 -0.812436 -12.722620 -0.467427 -0.528297 18.932394 2.293867 2.405689 -6.109329 0.000000 0.000000 0.000000 -4.601212 1.046077 -15.242774 -0.328549 1.263979 28.054300 -3.149809 -6.056236 -5.380295 0.000000 0.000000 0.000000 8.675565 -0.640116 4.177296 -2.257650 1.075841 -0.499269 -3.377611 3.359372 6.887967 7.951243 -3.483607 -15.258130 0.000000 0.000000 0.000000 -21.839147 -3.926581 -1.025112 -48.460499 -2.594018 -4.597442 -13.223910 -34.524154 5.138778 0.000000 0.000000 0.000000 15.268297 -0.994731 -1.043922 46.222629 7.815924 -2.004697 24.392872 39.738266 10.689943 0.000000 0.000000 0.000000 
0.002892 0.924270 -0.021302 -0.091219 -0.197555 2.483507 3.933012 -0.785454 -12.635830 -0.620221 -0.477630 19.063297 2.428023 2.777988 -6.059481 0.000000 0.000000 0.000000 -4.241681 1.085276 -15.184111 -0.531796 1.360953 28.015811 -3.401986 -6.850455 -5.143610 0.000000 0.000000 0.000000 8.343740 -0.591219 3.946777 -2.288468 1.091011 -0.639418 -3.459568 3.328719 6.998135 8.070594 -3.724859 -14.442525 0.000000 0.000000 0.000000 -21.091556 -3.173301 -1.302782 -46.164826 -2.111960 -4.564856 -14.554667 -36.004337 5.810869 0.000000 0.000000 0.000000 14.965363 -1.440833 -1.283502 45.195419 7.275003 -2.174267 25.017666 38.321057 10.439194 0.000000 0.000000 0.000000 
0.002780 0.923872 -0.021089 -0.083125 -0.478422 2.572137 3.926409 -0.789927 -12.772779 -0.795142 -0.416010 19.129304 2.480687 3.042555 -5.806242 0.000000 0.000000 0.000000 -4.008877 1.119288 -15.229963 -0.829072 1.472468 27.613767 -3.499022 -7.058443 -5.262987 0.000000 0.000000 0.000000 7.820712 -0.515804 3.499360 -2.313637 1.102652 -0.782531 -3.525296 3.587923 7.142641 7.981820 -3.795477 -13.685860 0.000000 0.000000 0.000000 -19.988471 -2.043342 -1.802978 -43.894119 -1.593740 -4.512987 -16.709057 -38.523496 6.971064 0.000000 0.000000 0.000000 15.188988 -1.996293 -1.549760 44.006201 7.118377 -2.230398 24.819119 37.053848 9.989315 0.000000 0.000000 0.000000 
